# xmcd
#
# Track frame offsets:
#	182
#	18257
#	35557
#	52645
#	71030
#	93325
#	108330
#
# Disc length: 1613 seconds
#
# Revision: 1
# Processed by: cddbd v1.5.2PL0 Copyright (c) Steve Scherf et al.
# Submitted via: EasyCDDAExtractor 5.0.6
#
DISCID=4e064b07
DTITLE=The Fauves - Live EP
DYEAR=1995
DGENRE=Indie Rock
TTITLE0=Archimede's Crown (Live)
TTITLE1=High How (Live)
TTITLE2=Orgasmosarion (Live)
TTITLE3=Bonepark (Live)
TTITLE4=Puffinhead and Manta Ray (Live)
TTITLE5=Someone Else's Earthquake (Live)
TTITLE6=Ghosting The Road (Live)
EXTD=
EXTT0=
EXTT1=
EXTT2=
EXTT3=
EXTT4=
EXTT5=
EXTT6=
PLAYORDER=
